<svg width="10" height="16" viewBox="0 0 10 16" fill="none" xmlns="http://www.w3.org/2000/svg">
<path d="M8.783 0.211587L6.7839 0.208374C4.53797 0.208374 3.08656 1.70004 3.08656 4.00878V5.76102H1.07655C0.902858 5.76102 0.762207 5.90207 0.762207 6.07606V8.61486C0.762207 8.78885 0.903018 8.92974 1.07655 8.92974H3.08656V15.3359C3.08656 15.5099 3.22721 15.6508 3.4009 15.6508H6.02339C6.19708 15.6508 6.33773 15.5098 6.33773 15.3359V8.92974H8.6879C8.86158 8.92974 9.00224 8.78885 9.00224 8.61486L9.0032 6.07606C9.0032 5.99252 8.97 5.91252 8.91114 5.8534C8.85228 5.79428 8.77209 5.76102 8.6887 5.76102H6.33773V4.27562C6.33773 3.56168 6.50757 3.19925 7.43599 3.19925L8.78268 3.19877C8.95621 3.19877 9.09686 3.05771 9.09686 2.88389V0.526467C9.09686 0.352801 8.95637 0.211908 8.783 0.211587Z" fill="white"/>
</svg>
