<svg width="16" height="14" viewBox="0 0 16 14" fill="none" xmlns="http://www.w3.org/2000/svg">
<path d="M15.7918 2.1344C15.2186 2.39029 14.6021 2.56336 13.9554 2.64066C14.6157 2.24242 15.1223 1.61231 15.3615 0.860244C14.7437 1.22919 14.0592 1.49684 13.3312 1.64111C12.748 1.01579 11.9171 0.625 10.997 0.625C9.23166 0.625 7.79988 2.06647 7.79988 3.84377C7.79988 4.09605 7.82825 4.34162 7.88309 4.57734C5.22603 4.44316 2.87009 3.1618 1.29312 1.21383C1.01797 1.68912 0.860126 2.24242 0.860126 2.83222C0.860126 3.94867 1.42497 4.93429 2.28236 5.51136C1.75853 5.4948 1.26522 5.35005 0.834376 5.10832C0.834137 5.12201 0.834137 5.13569 0.834137 5.14913C0.834137 6.70871 1.93664 8.00951 3.39893 8.30501C3.13094 8.37894 2.84792 8.41807 2.5568 8.41807C2.35032 8.41807 2.15027 8.39814 1.95524 8.3607C2.362 9.63918 3.54247 10.5698 4.94182 10.596C3.84742 11.4594 2.46905 11.9739 0.970758 11.9739C0.713253 11.9739 0.458133 11.9587 0.208496 11.9287C1.62263 12.8423 3.30356 13.375 5.10896 13.375C10.9896 13.375 14.2056 8.4704 14.2056 4.21656C14.2056 4.07709 14.2025 3.9381 14.1963 3.80032C14.8214 3.34663 15.3634 2.77989 15.7918 2.1344Z" fill="white"/>
</svg>
